<svg width="385" height="51" viewBox="0 0 385 51" fill="none" xmlns="http://www.w3.org/2000/svg">
<path d="M35.9375 16.6875H27.5625C27.5625 14.4375 27.3333 12.8333 26.875 11.875C26.4583 10.9167 25.9167 10.1458 25.25 9.5625C23.9583 8.4375 22.3958 7.875 20.5625 7.875C19.1042 7.875 17.7083 8.20833 16.375 8.875C15.0417 9.5 13.8125 10.5208 12.6875 11.9375C11.5625 13.4375 10.6667 15.3542 10 17.6875C9.33333 20.0208 9 22.375 9 24.75C9 26.25 9.1875 28.0625 9.5625 30.1875C9.9375 32.3125 10.625 34.3958 11.625 36.4375C12.625 38.3125 13.9583 39.875 15.625 41.125C17.2917 42.3333 19.3958 42.9375 21.9375 42.9375C23.8125 42.9375 25.7083 42.6042 27.625 41.9375C29.5833 41.2292 31.875 39.9583 34.5 38.125V46.625C34.25 46.7917 33.625 47.125 32.625 47.625C31.6667 48.125 30.6458 48.5417 29.5625 48.875C26.8125 49.6667 23.8333 50.0625 20.625 50.0625C17.1667 50.0625 14.1667 49.3125 11.625 47.8125C9.08333 46.2708 6.97917 44.2708 5.3125 41.8125C3.6875 39.3542 2.52083 36.6667 1.8125 33.75C1.14583 30.7917 0.8125 27.7917 0.8125 24.75C0.8125 21.6667 1.16667 18.7083 1.875 15.875C2.625 13 3.83333 10.5 5.5 8.375C7.125 6.20833 9.1875 4.39583 11.6875 2.9375C14.1875 1.47917 17.1458 0.75 20.5625 0.75C22.6458 0.75 24.625 1.125 26.5 1.875C28.375 2.625 30 3.625 31.375 4.875C32.7917 6.08333 33.8958 7.5625 34.6875 9.3125C35.5208 11.0625 35.9375 13.5208 35.9375 16.6875ZM47.875 10.6875H38.9375V1.5625H47.875V10.6875ZM47.5 49.25H39.4375V14.9375H47.5V49.25ZM72.625 21.875C70.6667 21.875 69.1667 22 68.125 22.25C67.0833 22.5 66.1042 22.8958 65.1875 23.4375C64.2292 23.9792 63.3542 24.7083 62.5625 25.625C61.8125 26.5417 61.3125 27.6667 61.0625 29C60.7292 30.7083 60.5625 32.6667 60.5625 34.875V49.25H52.75V14.9375H60.5625V18.875C61.1875 18.0417 61.9792 17.2917 62.9375 16.625C65.1875 15.0417 68.4167 14.2292 72.625 14.1875V21.875ZM100.562 27.625H92.3125C92.3125 25.375 91.8958 23.7083 91.0625 22.625C90.2292 21.5 89.0208 20.9375 87.4375 20.9375C85.6458 20.9375 84.0417 21.8542 82.625 23.6875C81.25 25.4792 80.5625 28.1042 80.5625 31.5625C80.5625 32.3542 80.6458 33.2083 80.8125 34.125C80.9792 35.0417 81.2083 35.9375 81.5 36.8125C81.8333 37.8542 82.3333 38.8542 83 39.8125C83.7083 40.7708 84.6042 41.5833 85.6875 42.25C86.0625 42.4583 86.625 42.6667 87.375 42.875C88.125 43.0833 89.0417 43.1875 90.125 43.1875C90.8333 43.1875 91.9792 43.0417 93.5625 42.75C95.1458 42.4167 97.1875 41.5625 99.6875 40.1875V47.125C97.3958 48.4583 95.2083 49.3333 93.125 49.75C91.0417 50.125 88.9375 50.2083 86.8125 50C84.9792 49.75 83.1458 49.1875 81.3125 48.3125C79.5208 47.3958 78.0625 46.3333 76.9375 45.125C75.6458 43.5833 74.5625 41.6667 73.6875 39.375C72.8125 37.0833 72.375 34.4583 72.375 31.5C72.375 29 72.6875 26.7292 73.3125 24.6875C73.9792 22.6042 74.9375 20.8125 76.1875 19.3125C77.3958 17.7708 78.9792 16.5417 80.9375 15.625C82.8958 14.6667 85.125 14.1875 87.625 14.1875C89.4583 14.1875 91.1458 14.5 92.6875 15.125C94.2292 15.7083 95.5625 16.5 96.6875 17.5C97.8542 18.5 98.7917 19.75 99.5 21.25C100.208 22.7083 100.562 24.8333 100.562 27.625ZM104.188 14.9375H112.125V36.25C112.125 38.5833 112.583 40.4375 113.5 41.8125C114.125 42.6042 115.146 43 116.562 43C117.771 43 118.979 42.3125 120.188 40.9375C121.396 39.5625 122.292 37.4375 122.875 34.5625C123.042 33.8125 123.146 33.1042 123.188 32.4375C123.271 31.7292 123.312 30.9167 123.312 30V14.9375H131.188V49.25H123.312V46.5C122.771 47.3333 121.812 48.1458 120.438 48.9375C119.104 49.6875 117.708 50.0625 116.25 50.0625C112.417 50.0625 109.458 49.0208 107.375 46.9375C105.25 44.8125 104.188 41.75 104.188 37.75V14.9375ZM144.875 10.6875H135.938V1.5625H144.875V10.6875ZM144.5 49.25H136.438V14.9375H144.5V49.25ZM167.75 21.6875H160V37.5625C160 38.4792 160 39.3125 160 40.0625C160 40.7708 160.146 41.4583 160.438 42.125C160.604 42.5417 160.854 42.8333 161.188 43C161.562 43.125 162.167 43.1875 163 43.1875C163.958 43.2292 165.5 43.0417 167.625 42.625V49.5C165.5 49.8333 163.542 50 161.75 50C158.542 50 156.125 49.2083 154.5 47.625C152.875 46.0417 152.062 43.9375 152.062 41.3125V21.6875H147.625V14.9375H152.062V8.3125L160 4.125V14.9375H167.75V21.6875ZM220.188 35.1875C220.188 38.8958 219.25 41.8542 217.375 44.0625C215.5 46.2708 213.167 47.7917 210.375 48.625C209.375 48.875 208.271 49.0417 207.062 49.125C205.896 49.2083 204.958 49.25 204.25 49.25H190.375V1.5625H203.5C208.167 1.5625 211.833 2.70833 214.5 5C217.208 7.29167 218.562 10.5625 218.562 14.8125C218.562 17.1042 218.042 19.0208 217 20.5625C215.958 22.1042 214.625 23.25 213 24C215.083 24.8333 216.792 26.1042 218.125 27.8125C219.5 29.5208 220.188 31.9792 220.188 35.1875ZM198.375 42.1875H203.562C203.979 42.1875 204.604 42.1667 205.438 42.125C206.271 42.0833 206.875 42 207.25 41.875C208.917 41.3333 210.146 40.4792 210.938 39.3125C211.729 38.1458 212.125 36.7708 212.125 35.1875C212.125 33.5208 211.729 32.125 210.938 31C210.146 29.8333 208.917 29 207.25 28.5C206.875 28.3333 206.292 28.1875 205.5 28.0625C204.75 27.9375 204.083 27.875 203.5 27.875H198.375V42.1875ZM210.5 14.8125C210.5 12.8542 209.979 11.4167 208.938 10.5C207.938 9.54167 206.562 8.97917 204.812 8.8125C204.438 8.77083 204 8.75 203.5 8.75C203 8.70833 202.604 8.6875 202.312 8.6875H198.375V20.8125H204.812C206.479 20.6042 207.833 19.9792 208.875 18.9375C209.958 17.8958 210.5 16.5208 210.5 14.8125ZM243.812 21.875C241.854 21.875 240.354 22 239.312 22.25C238.271 22.5 237.292 22.8958 236.375 23.4375C235.417 23.9792 234.542 24.7083 233.75 25.625C233 26.5417 232.5 27.6667 232.25 29C231.917 30.7083 231.75 32.6667 231.75 34.875V49.25H223.938V14.9375H231.75V18.875C232.375 18.0417 233.167 17.2917 234.125 16.625C236.375 15.0417 239.604 14.2292 243.812 14.1875V21.875ZM251.875 28.3125H263.812C263.812 26.3542 263.458 24.6875 262.75 23.3125C262.333 22.6042 261.75 22.0417 261 21.625C260.292 21.1667 259.5 20.9375 258.625 20.9375C256.833 20.9375 255.229 21.8333 253.812 23.625C252.854 24.8333 252.208 26.3958 251.875 28.3125ZM252.062 35.0625C252.188 35.6458 252.354 36.25 252.562 36.875C252.896 37.8333 253.417 38.7917 254.125 39.75C254.875 40.7083 255.792 41.5417 256.875 42.25C257.25 42.4583 257.812 42.6667 258.562 42.875C259.312 43.0833 260.229 43.1875 261.312 43.1875C262.562 43.1875 263.979 42.9792 265.562 42.5625C267.146 42.1042 268.917 41.2917 270.875 40.125V47.125C268.583 48.4583 266.396 49.3333 264.312 49.75C262.229 50.125 260.125 50.2083 258 50C256.167 49.75 254.333 49.1875 252.5 48.3125C250.708 47.3958 249.25 46.3333 248.125 45.125C246.833 43.5833 245.75 41.6667 244.875 39.375C244 37.0833 243.562 34.4583 243.562 31.5C243.562 29 243.875 26.7292 244.5 24.6875C245.167 22.6042 246.125 20.8125 247.375 19.3125C248.583 17.8125 250.125 16.5833 252 15.625C253.917 14.6667 256.146 14.1875 258.688 14.1875C260.812 14.1875 262.792 14.6458 264.625 15.5625C266.458 16.4792 267.896 17.6458 268.938 19.0625C270.812 21.5208 271.75 25.5833 271.75 31.25V35.0625H252.062ZM300.625 49.25H292.688V46.6875C290.604 48.8958 287.375 50 283 50C282.083 50 281 49.7708 279.75 49.3125C278.542 48.8125 277.5 48.1667 276.625 47.375C275.708 46.4583 275 45.4375 274.5 44.3125C274 43.1458 273.75 41.8333 273.75 40.375C273.75 37.6667 274.458 35.375 275.875 33.5C277.333 31.625 279.083 30.2917 281.125 29.5C282.417 29 283.792 28.625 285.25 28.375C286.75 28.125 287.938 28 288.812 28H292.688V26.375C292.688 26.0833 292.604 25.5833 292.438 24.875C292.312 24.125 292.083 23.4583 291.75 22.875C291.375 22.2917 290.833 21.8333 290.125 21.5C289.458 21.125 288.646 20.9375 287.688 20.9375C286.479 20.9375 285.417 21.2917 284.5 22C283.583 22.6667 283.125 24.0208 283.125 26.0625H274.562C274.562 23.8125 274.812 22.0833 275.312 20.875C275.812 19.6667 276.625 18.5833 277.75 17.625C278.792 16.6667 280.188 15.8542 281.938 15.1875C283.688 14.5208 285.604 14.1875 287.688 14.1875C291.938 14.1875 295.146 15.375 297.312 17.75C299.521 20.0833 300.625 22.875 300.625 26.125V49.25ZM292.688 36.5625V34.4375C292.104 34.4375 291.438 34.4583 290.688 34.5C289.938 34.5 288.708 34.6458 287 34.9375C285.75 35.1458 284.604 35.6458 283.562 36.4375C282.396 37.3542 281.812 38.4583 281.812 39.75C281.812 41.0417 282.146 41.9583 282.812 42.5C283.479 43 284.292 43.25 285.25 43.25C285.625 43.25 286.208 43.1875 287 43.0625C287.792 42.8958 288.5 42.6042 289.125 42.1875C290.458 41.2708 291.479 40.1667 292.188 38.875C292.521 38.2917 292.688 37.5208 292.688 36.5625ZM334.125 49.25H324.312L313.438 36.625V49.25H305.562V1.5625H313.438V25.4375L323.812 14.9375H333.938L318.125 30.5L334.125 49.25ZM340.75 28.3125H352.688C352.688 26.3542 352.333 24.6875 351.625 23.3125C351.208 22.6042 350.625 22.0417 349.875 21.625C349.167 21.1667 348.375 20.9375 347.5 20.9375C345.708 20.9375 344.104 21.8333 342.688 23.625C341.729 24.8333 341.083 26.3958 340.75 28.3125ZM340.938 35.0625C341.062 35.6458 341.229 36.25 341.438 36.875C341.771 37.8333 342.292 38.7917 343 39.75C343.75 40.7083 344.667 41.5417 345.75 42.25C346.125 42.4583 346.688 42.6667 347.438 42.875C348.188 43.0833 349.104 43.1875 350.188 43.1875C351.438 43.1875 352.854 42.9792 354.438 42.5625C356.021 42.1042 357.792 41.2917 359.75 40.125V47.125C357.458 48.4583 355.271 49.3333 353.188 49.75C351.104 50.125 349 50.2083 346.875 50C345.042 49.75 343.208 49.1875 341.375 48.3125C339.583 47.3958 338.125 46.3333 337 45.125C335.708 43.5833 334.625 41.6667 333.75 39.375C332.875 37.0833 332.438 34.4583 332.438 31.5C332.438 29 332.75 26.7292 333.375 24.6875C334.042 22.6042 335 20.8125 336.25 19.3125C337.458 17.8125 339 16.5833 340.875 15.625C342.792 14.6667 345.021 14.1875 347.562 14.1875C349.688 14.1875 351.667 14.6458 353.5 15.5625C355.333 16.4792 356.771 17.6458 357.812 19.0625C359.688 21.5208 360.625 25.5833 360.625 31.25V35.0625H340.938ZM384.125 21.875C382.167 21.875 380.667 22 379.625 22.25C378.583 22.5 377.604 22.8958 376.688 23.4375C375.729 23.9792 374.854 24.7083 374.062 25.625C373.312 26.5417 372.812 27.6667 372.562 29C372.229 30.7083 372.062 32.6667 372.062 34.875V49.25H364.25V14.9375H372.062V18.875C372.688 18.0417 373.479 17.2917 374.438 16.625C376.688 15.0417 379.917 14.2292 384.125 14.1875V21.875Z" fill="#04AF00"/>
</svg>
